/* XPM */
static char * shade_inactive_xpm[] = {
"33 43 6 1",
"       c None",
".      c #C0C0FF s inactive_color_2",
"@      c #949594 s inactive_shadow_2",
"#      c #000000 s inactive_text_color",
"$      c #C0C0FF s inactive_color_2",
"+      c #C0C0FF s inactive_color_2",
".................................",
".................................",
".................................",
".................................",
".................................",
".................................",
".................................",
".................................",
".................................",
".................................",
"..............$$$$$,.............",
"............$$+++++$$............",
"..........$$+++++++++$$..........",
".........$+++++++++++++$.........",
"........$+++++++++++++++$........",
".......$+++++++++++++++++$.......",
"......$+++@@@@@@@@@@@@@+++$......",
"......$++@#############@++$......",
".....$++++@@@@@@@@@@@@@++++$.....",
".....$+++++++++++++++++++++$.....",
"....$++++@@+++++++++++@@++++$....",
"....$++++@#@+++++++++@#@++++$....",
"....$+++++@#@+++++++@#@+++++$....",
"....$++++++@#@+++++@#@++++++$....",
"....$+++++++@#@+++@#@+++++++$....",
".....$+++++++@#@+@#@+++++++$.....",
".....$++++++++@#@#@++++++++$.....",
"......$++++++++@#@++++++++$......",
"......$+++++++++@+++++++++$......",
".......$+++++++++++++++++$.......",
"........$+++++++++++++++$........",
".........$+++++++++++++$.........",
"..........$$+++++++++$$..........",
"............$$+++++$$............",
"..............$$$$$..............",
".................................",
".................................",
".................................",
".................................",
".................................",
".................................",
".................................",
"................................."};
