/* XPM */
static char * hide_inactive_xpm[] = {
"18 18 4 1",
" 	c None",
".	c #292F34 s inactive_color_2",
"+	c #989A9C",
"@	c #989A9C",
"..................",
"..................",
"..................",
"..................",
"..................",
"..................",
"..................",
"....++......++....",
".....++....++.....",
"......++..++......",
".......++++.......",
"........@@........",
"..................",
"..................",
"..................",
"..................",
"..................",
".................."};
