/* XPM */
static char * maximize_toggled_active_xpm[] = {
"18 18 44 1",
" 	c None",
".	c #525C64 s active_color_2",
"+	c #515C63 s active_color_2",
"@	c #505B62 s active_color_2",
"#	c #505A62 s active_color_2",
"$	c #515B63 s active_color_2",
"%	c #4F5961 s active_color_2",
"&	c #565F67 s active_color_2",
"*	c #E9EBEC",
"=	c #EFF0F1",
"-	c #4F5960 s active_color_2",
";	c #565F66 s active_color_2",
">	c #C6CACC",
",	c #CDD0D3",
"'	c #4E5860 s active_color_2",
")	c #555E66 s active_color_2",
"!	c #C6C9CC",
"~	c #4D575F s active_color_2",
"{	c #545D65 s active_color_2",
"]	c #4D575E s active_color_2",
"^	c #4E585F s active_color_2",
"/	c #D8DADC",
"(	c #CCCFD1",
"_	c #545D64 s active_color_2",
":	c #4C565D s active_color_2",
"<	c #CBCFD1",
"[	c #535C63 s active_color_2",
"}	c #4C555D s active_color_2",
"|	c #535B63 s active_color_2",
"1	c #C5C9CC",
"2	c #4B555C s active_color_2",
"3	c #525B62 s active_color_2",
"4	c #C5C9CB",
"5	c #4A545B s active_color_2",
"6	c #515A61 s active_color_2",
"7	c #C5C8CB",
"8	c #CBCED1",
"9	c #4A535A s active_color_2",
"0	c #515960 s active_color_2",
"a	c #D7DADC",
"b	c #49535A s active_color_2",
"c	c #495259 s active_color_2",
"d	c #485158 s active_color_2",
"e	c #475057 s active_color_2",
"..................",
"++++++++++++++++++",
"@@@@@@@@@@@@@@@@@@",
"########$$########",
"%%%%%%%&*=&%%%%%%%",
"------;>,,>;------",
"''''')!!))!!)'''''",
"~~~~{!!{~~{!!{~~~~",
"]]]^/(_]]]]_(/^]]]",
":::]/<[::::[</]:::",
"}}}}|11|}}|11|}}}}",
"222223443344322222",
"555555678876555555",
"99999990aa09999999",
"bbbbbbbb55bbbbbbbb",
"cccccccccccccccccc",
"dddddddddddddddddd",
"eeeeeeeeeeeeeeeeee"};
