/* XPM */
static char * maximize_inactive_xpm[] = {
"18 18 4 1",
" 	c None",
".	c #292F34",
"+	c #BDC3C7",
"@	c #BFC5C8",
"..................",
"..................",
"..................",
"..................",
"..................",
"..................",
"........++........",
".......@..@.......",
"......@....@......",
".....@......@.....",
"....@........@....",
"..................",
"..................",
"..................",
"..................",
"..................",
"..................",
".................."};
