/* XPM */
static char * maximize_active_xpm[] = {
"18 18 30 1",
" 	c #525C64 s active_color_2",
".	c #515C63 s active_color_2",
"+	c #505B62 s active_color_2",
"@	c #505A62 s active_color_2",
"#	c #4F5961 s active_color_2",
"$	c #4F5960 s active_color_2",
"%	c #81878D",
"&	c #4E5860 s active_color_2",
"*	c #80878D",
"=	c #EFF0F1",
"-	c #4D575F s active_color_2",
";	c #7F868D",
">	c #E8EAEB",
",	c #4D575E s active_color_2",
"'	c #7F868C",
")	c #4C565D s active_color_2",
"!	c #7E858B",
"~	c #4C555D s active_color_2",
"{	c #787F85",
"]	c #798085",
"^	c #4B555C s active_color_2",
"/	c #727A80",
"(	c #788085",
"_	c #787F84",
":	c #4A545B s active_color_2",
"<	c #4A535A s active_color_2",
"[	c #49535A s active_color_2",
"}	c #495259 s active_color_2",
"|	c #485158 s active_color_2",
"1	c #475057 s active_color_2",
"                  ",
"..................",
"++++++++++++++++++",
"@@@@@@@@@@@@@@@@@@",
"##################",
"$$$$$$$$%%$$$$$$$$",
"&&&&&&&*==*&&&&&&&",
"------;>;;>;------",
",,,,,'>',,'>',,,,,",
"))))!>!))))!>!))))",
"~~~{>!~~~~~~!>]~~~",
"^^^/(^^^^^^^^_/^^^",
"::::::::::::::::::",
"<<<<<<<<<<<<<<<<<<",
"[[[[[[[[[[[[[[[[[[",
"}}}}}}}}}}}}}}}}}}",
"||||||||||||||||||",
"111111111111111111"};
