/* XPM */
static char * maximize_toggled_inactive_xpm[] = {
"18 18 16 1",
" 	c None",
".	c #292F34 s inactive_color_2",
"+	c #989B9D",
"@	c #989A9C",
"#	c #9D9FA0",
"$	c #737575",
"%	c #747575",
"&	c #3F474B s inactive_color_2",
"*	c #3E464B s inactive_color_2",
"=	c #727474",
"-	c #9B9D9E",
";	c #3A4348 s inactive_color_2",
">	c #9A9D9E",
",	c #727475",
"'	c #3D454A s inactive_color_2",
")	c #737475",
"..................",
"..................",
"..................",
"..................",
"........+@........",
".......#$$#.......",
"......#%&*=-......",
".....#%&;;*=-.....",
"....>,';;;;',>....",
"....>,';;;;',>....",
".....#%&;;*)-.....",
"......#%&*)-......",
".......#,,#.......",
"........>>........",
"..................",
"..................",
"..................",
".................."};
