/* XPM */
static char * maximize_toggled_pressed_xpm[] = {
"18 18 47 1",
" 	c #525C64 s active_color_2",
".	c #535D65 s active_color_2",
"+	c #7D848A s active_color_2",
"@	c #B1B6B9",
"#	c #D7D9DB",
"$	c #E8E9EB",
"%	c #515C63 s active_color_2",
"&	c #697278 s active_color_2",
"*	c #C9CDCF",
"=	c #EFF0F1",
"-	c #505B62 s active_color_2",
";	c #767E85 s active_color_2",
">	c #E5E7E8",
",	c #505A62 s active_color_2",
"'	c #687177 s active_color_2",
")	c #EEEFF0",
"!	c #C9CCCE",
"~	c #4C555C s active_color_2",
"{	c #475057 s active_color_2",
"]	c #7B8287 s active_color_2",
"^	c #72797E s active_color_2",
"/	c #6A7177 s active_color_2",
"(	c #B0B5B8",
"_	c #AFB4B8",
":	c #D6D8DB",
"<	c #E8E9EA",
"[	c #5F676D s active_color_2",
"}	c #6C7378 s active_color_2",
"|	c #D6D8DA",
"1	c #AEB3B6",
"2	c #777E83 s active_color_2",
"3	c #4B545B s active_color_2",
"4	c #C8CBCD",
"5	c #C7CACC",
"6	c #49535A s active_color_2",
"7	c #626B71 s active_color_2",
"8	c #E5E6E8",
"9	c #E4E6E7",
"0	c #495259 s active_color_2",
"a	c #71777E s active_color_2",
"b	c #E4E5E7",
"c	c #485158 s active_color_2",
"d	c #61696F s active_color_2",
"e	c #757B80 s active_color_2",
"f	c #ACB1B4",
"g	c #D5D7D9",
"h	c #E7E9EA",
"    .+@#$$#@+.    ",
"%%%&*========*&%%%",
"--;>==========>;--",
",'>=====))=====>',",
",!=====$~{$=====!,",
"]=====$^//^$=====]",
"(====$^^$$^^$====_",
":===$^^$==$^^$===:",
"<==)[}$====$}[)==<",
"<==)[}$====$}[)==<",
"|===$^^$==$^^$===|",
"1====$^^$$^^$====1",
"2=====$^}}^$=====2",
"34=====$[[$=====53",
"678=====))=====976",
"00a8==========ba00",
"cccd5========5dccc",
"{{{{cefghhgfec{{{{"};
