/* XPM */
static char * maximize_inactive_xpm[] = {
"18 18 4 1",
" 	c None",
".	c None",
"+	c #989A9C",
"@	c #989A9C",
"..................",
"..................",
"..................",
"..................",
"..................",
"..................",
"........++........",
".......@@@@.......",
"......@@..@@......",
".....@@....@@.....",
"....@@......@@....",
"..................",
"..................",
"..................",
"..................",
"..................",
"..................",
".................."};
