/* XPM */
static char * menu_inactive_xpm[] = {
"18 18 8 1",
" 	c None",
".	c #292F34",
"+	c #515456",
"@	c #B5B6B6",
"#	c #6A6B6D",
"$	c #67696B",
"%	c #6B6D6E",
"&	c #686A6B",
"..................",
"..................",
"..................",
".......+..........",
"......+@#.........",
".......$@%........",
"........$@%.......",
".........$@%......",
"..........#@#.....",
"..........#@#.....",
".........&@%......",
"........&@%.......",
".......&@%........",
"......+@#.........",
".......+..........",
"..................",
"..................",
".................."};
