/* XPM */
static char * menu_pressed_xpm[] = {
"18 18 33 1",
" 	c None",
".	c #525C64 s active_color_2",
"+	c #515C63 s active_color_2",
"@	c #505B62 s active_color_2",
"#	c #505A62 s active_color_2",
"$	c #4F5961 s active_color_2",
"%	c #4F5960 s active_color_2",
"&	c #4E5860 s active_color_2",
"*	c #4C7370 s active_color_2",
"=	c #4D575F s active_color_2",
"-	c #4B726F s active_color_2",
";	c #38D0B2",
">	c #48877D s active_color_2",
",	c #4D575E s active_color_2",
"'	c #49857B s active_color_2",
")	c #38D0B1",
"!	c #48897D s active_color_2",
"~	c #48847C s active_color_2",
"{	c #4C565D s active_color_2",
"]	c #48857A s active_color_2",
"^	c #47887C s active_color_2",
"/	c #47847B s active_color_2",
"(	c #4C555D s active_color_2",
"_	c #47837B s active_color_2",
":	c #4B555C s active_color_2",
"<	c #47867B s active_color_2",
"[	c #4A545B s active_color_2",
"}	c #46867B s active_color_2",
"|	c #4A535A s active_color_2",
"1	c #49535A s active_color_2",
"2	c #495259 s active_color_2",
"3	c #485158 s active_color_2",
"4	c #475057 s active_color_2",
"..................",
"++++++++++++++++++",
"@@@@@@@@@@@@@@@@@@",
"##################",
"$$$$$$$$$$$$$$$$$$",
"%%%%%%%%%%%%%%%%%%",
"&&&&*&&&&&&&&*&&&&",
"===-;>======>;-===",
",,,,')!,,,,~)!,,,,",
"{{{{{])^{{/)^{{{{{",
"((((((])^_)^((((((",
":::::::<;;<:::::::",
"[[[[[[[[}}[[[[[[[[",
"||||||||||||||||||",
"111111111111111111",
"222222222222222222",
"333333333333333333",
"444444444444444444"};
