/* XPM */
static char * stick_active_xpm[] = {
"18 18 38 1",
" 	c None",
".	c #525C64 s active_color_2",
"+	c #515C63 s active_color_2",
"@	c #505B62 s active_color_2",
"#	c #505A62 s active_color_2",
"$	c #A0A5AA",
"%	c #4F5961 s active_color_2",
"&	c #9FA4A9",
"*	c #EFF0F1",
"=	c #4F5960 s active_color_2",
"-	c #4E5860 s active_color_2",
";	c #515B62 s active_color_2",
">	c #4D575F s active_color_2",
",	c #E2E4E5",
"'	c #7F868D",
")	c #9EA3A8",
"!	c #4D575E s active_color_2",
"~	c #7F868C",
"{	c #EAEBED",
"]	c #4C565D s active_color_2",
"^	c #7E858B",
"/	c #EDEEEF",
"(	c #9EA3A7",
"_	c #4C555D s active_color_2",
":	c #EAECED",
"<	c #9EA2A7",
"[	c #4B555C s active_color_2",
"}	c #7E858A",
"|	c #E8EAEB",
"1	c #4A545B s active_color_2",
"2	c #7D848A",
"3	c #4A535A s active_color_2",
"4	c #4D565D s active_color_2",
"5	c #7D8389",
"6	c #49535A s active_color_2",
"7	c #495259 s active_color_2",
"8	c #485158 s active_color_2",
"9	c #475057 s active_color_2",
"..................",
"++++++++++++++++++",
"@@@@@@@@@@@@@@@@@@",
"###########$$#####",
"%%%%%%%%%%&**&%%%%",
"=========&****&===",
"-----;--&*****&---",
">>>>#,')*****)>>>>",
"!!!!!~{*****)!!!!!",
"]]]]]]^/***(]]]]]]",
"______^:/*<_______",
"[[[[[}|}}{}[[[[[[[",
"11112|2112,!111111",
"3334,5333343333333",
"6666]6666666666666",
"777777777777777777",
"888888888888888888",
"999999999999999999"};
