/* XPM */
static char * stick_toggled_active_xpm[] = {
"18 18 39 1",
" 	c None",
".	c #525C64 s active_color_2",
"+	c #515C63 s active_color_2",
"@	c #505B62 s active_color_2",
"#	c #505A62 s active_color_2",
"$	c #515B63 s active_color_2",
"%	c #90969B",
"&	c #CCCFD2",
"*	c #E8E9EB",
"=	c #4F5961 s active_color_2",
"-	c #606971",
";	c #C7CACD",
">	c #EFF0F1",
",	c #4F5960 s active_color_2",
"'	c #505A61 s active_color_2",
")	c #C8CBCD",
"!	c #4E5860 s active_color_2",
"~	c #8F959A",
"{	c #4D575F s active_color_2",
"]	c #CCCFD1",
"^	c #4D575E s active_color_2",
"/	c #E8E9EA",
"(	c #6B7278",
"_	c #4C565D s active_color_2",
":	c #4C555D s active_color_2",
"<	c #CBCED1",
"[	c #4B555C s active_color_2",
"}	c #8D9397",
"|	c #4A545B s active_color_2",
"1	c #C6C9CC",
"2	c #4A535A s active_color_2",
"3	c #5B636A s active_color_2",
"4	c #49535A s active_color_2",
"5	c #8C9296",
"6	c #CBCED0",
"7	c #E7E9EA",
"8	c #495259 s active_color_2",
"9	c #485158 s active_color_2",
"0	c #475057 s active_color_2",
"..................",
"++++++++++++++++++",
"@@@@@@@@@@@@@@@@@@",
"#####$%&**&%$#####",
"====-;>>>>>>;-====",
",,,')>>>>>>>>;',,,",
"!!!~>>>>>>>>>>~!!!",
"{{{]>>>>>>>>>>]{{{",
"^^^/>>>>((>>>>/^^^",
"___/>>>>((>>>>/___",
":::<>>>>>>>>>><:::",
"[[[}>>>>>>>>>>}[[[",
"|||[1>>>>>>>>1[|||",
"222231>>>>>>132222",
"44444|567765|44444",
"888888888888888888",
"999999999999999999",
"000000000000000000"};
