/* XPM */
static char * stick_toggled_prelight_xpm[] = {
"18 18 50 1",
" 	c None",
".	c #525C64 s active_color_2",
"+	c #535D65 s active_color_2",
"@	c #7D848A s active_color_2",
"#	c #B1B6B9",
"$	c #D7D9DB",
"%	c #E8E9EB",
"&	c #515C63 s active_color_2",
"*	c #697278 s active_color_2",
"=	c #C9CDCF",
"-	c #EFF0F1",
";	c #505B62 s active_color_2",
">	c #767E85 s active_color_2",
",	c #E5E7E8",
"'	c #505A62 s active_color_2",
")	c #687177 s active_color_2",
"!	c #EEEFF0",
"~	c #ABB0B4",
"{	c #6C7378 s active_color_2",
"]	c #4F575E s active_color_2",
"^	c #C9CCCE",
"/	c #DEDFE0",
"(	c #71787D s active_color_2",
"_	c #475057 s active_color_2",
":	c #7B8287 s active_color_2",
"<	c #70777E s active_color_2",
"[	c #B0B5B8",
"}	c #AFB4B8",
"|	c #D6D8DB",
"1	c #E8E9EA",
"2	c #CBCED0",
"3	c #D6D8DA",
"4	c #AEB3B6",
"5	c #777E83 s active_color_2",
"6	c #4B545B s active_color_2",
"7	c #C8CBCD",
"8	c #C7CACC",
"9	c #49535A s active_color_2",
"0	c #626B71 s active_color_2",
"a	c #E5E6E8",
"b	c #E4E6E7",
"c	c #495259 s active_color_2",
"d	c #71777E s active_color_2",
"e	c #E4E5E7",
"f	c #485158 s active_color_2",
"g	c #61696F s active_color_2",
"h	c #757B80 s active_color_2",
"i	c #ACB1B4",
"j	c #D5D7D9",
"k	c #E7E9EA",
"....+@#$%%$#@+....",
"&&&*=--------=*&&&",
";;>,----------,>;;",
"'),--!~{]]{~!--,)'",
"'^--/(______(/--^'",
":--!<________(!--:",
"[--~__________~--}",
"|--{__________{--|",
"1--]____22____]--1",
"1--]____22____]--1",
"3--{__________{--3",
"4--~__________~--4",
"5--!(________(!--5",
"67--/(______(/--86",
"90a--!~{]]{~!--b09",
"ccda----------edcc",
"fffg8--------8gfff",
"____fhijkkjihf____"};
